<?xml version="1.0" encoding="UTF-8"?>
<svg width="18px" height="12px" viewBox="0 0 18 12" version="1.1" xmlns="http://www.w3.org/2000/svg" xmlns:xlink="http://www.w3.org/1999/xlink">
  <defs></defs>
  <g id="UI" stroke="none" stroke-width="1" fill="none" fill-rule="evenodd">
    <g id="iPad-0-login-Copy-2" transform="translate(-871.000000, -382.000000)" fill="#808080">
      <path d="M879.892,386.45 L880,386.45 C880.396002,386.45 880.767998,386.551999 881.116,386.756 C881.464002,386.960001 881.739999,387.235998 881.944,387.584 C882.148001,387.932002 882.25,388.303998 882.25,388.7 L882.25,388.844 L879.892,386.45 Z M876.67,387.044 C876.381999,387.596003 876.238,388.147997 876.238,388.7 C876.238,389.384003 876.405998,390.013997 876.742,390.59 C877.078002,391.166003 877.533997,391.621998 878.11,391.958 C878.686003,392.294002 879.315997,392.462 880,392.462 C880.552003,392.462 881.103997,392.318001 881.656,392.03 L880.486,390.878 C880.317999,390.926 880.156001,390.95 880,390.95 C879.603998,390.95 879.232002,390.848001 878.884,390.644 C878.535998,390.439999 878.260001,390.164002 878.056,389.816 C877.851999,389.467998 877.75,389.096002 877.75,388.7 C877.75,388.543999 877.774,388.382001 877.822,388.214 L876.67,387.044 Z M872.512,382.904 L873.466,381.95 L886.75,395.234 L885.796,396.188 C884.667994,395.083994 883.828003,394.250003 883.276,393.686 C882.279995,394.106002 881.188006,394.316 880,394.316 C878.763994,394.316 877.588006,394.076002 876.472,393.596 C875.391995,393.127998 874.441004,392.471004 873.619,391.625 C872.796996,390.778996 872.170002,389.804006 871.738,388.7 C872.314003,387.259993 873.249994,386.018005 874.546,384.974 L872.512,382.904 Z M880,384.938 C879.531998,384.938 879.076002,385.033999 878.632,385.226 L877.012,383.606 C877.936005,383.245998 878.931995,383.066 880,383.066 C881.236006,383.066 882.405994,383.305998 883.51,383.786 C884.590005,384.254002 885.537996,384.913996 886.354,385.766 C887.170004,386.618004 887.793998,387.595994 888.226,388.7 C887.673997,390.080007 886.822006,391.261995 885.67,392.246 L883.474,390.068 C883.666001,389.623998 883.762,389.168002 883.762,388.7 C883.762,388.015997 883.594002,387.386003 883.258,386.81 C882.921998,386.233997 882.466003,385.778002 881.89,385.442 C881.313997,385.105998 880.684003,384.938 880,384.938 Z" id="visibility-off"></path>
    </g>
  </g>
</svg>