<?xml version="1.0" encoding="UTF-8"?>
<svg width="18px" height="12px" viewBox="0 0 18 12" version="1.1" xmlns="http://www.w3.org/2000/svg" xmlns:xlink="http://www.w3.org/1999/xlink">
  <defs></defs>
  <g id="UI" stroke="none" stroke-width="1" fill="none" fill-rule="evenodd">
    <g id="iPad-0-login-Copy-2" transform="translate(-871.000000, -382.000000)" fill="#27ae60">
      <path d="M880,386.45 C880.396002,386.45 880.767998,386.551999 881.116,386.756 C881.464002,386.960001 881.739999,387.235998 881.944,387.584 C882.148001,387.932002 882.25,388.303998 882.25,388.7 C882.25,389.096002 882.148001,389.467998 881.944,389.816 C881.739999,390.164002 881.464002,390.439999 881.116,390.644 C880.767998,390.848001 880.396002,390.95 880,390.95 C879.603998,390.95 879.232002,390.848001 878.884,390.644 C878.535998,390.439999 878.260001,390.164002 878.056,389.816 C877.851999,389.467998 877.75,389.096002 877.75,388.7 C877.75,388.303998 877.851999,387.932002 878.056,387.584 C878.260001,387.235998 878.535998,386.960001 878.884,386.756 C879.232002,386.551999 879.603998,386.45 880,386.45 Z M880,392.462 C880.684003,392.462 881.313997,392.294002 881.89,391.958 C882.466003,391.621998 882.921998,391.166003 883.258,390.59 C883.594002,390.013997 883.762,389.384003 883.762,388.7 C883.762,388.015997 883.594002,387.386003 883.258,386.81 C882.921998,386.233997 882.466003,385.778002 881.89,385.442 C881.313997,385.105998 880.684003,384.938 880,384.938 C879.315997,384.938 878.686003,385.105998 878.11,385.442 C877.533997,385.778002 877.078002,386.233997 876.742,386.81 C876.405998,387.386003 876.238,388.015997 876.238,388.7 C876.238,389.384003 876.405998,390.013997 876.742,390.59 C877.078002,391.166003 877.533997,391.621998 878.11,391.958 C878.686003,392.294002 879.315997,392.462 880,392.462 Z M880,383.066 C881.236006,383.066 882.411994,383.305998 883.528,383.786 C884.608005,384.254002 885.558996,384.913996 886.381,385.766 C887.203004,386.618004 887.829998,387.595994 888.262,388.7 C887.829998,389.804006 887.203004,390.778996 886.381,391.625 C885.558996,392.471004 884.608005,393.127998 883.528,393.596 C882.411994,394.076002 881.236006,394.316 880,394.316 C878.763994,394.316 877.588006,394.076002 876.472,393.596 C875.391995,393.127998 874.441004,392.471004 873.619,391.625 C872.796996,390.778996 872.170002,389.804006 871.738,388.7 C872.170002,387.595994 872.796996,386.618004 873.619,385.766 C874.441004,384.913996 875.391995,384.254002 876.472,383.786 C877.588006,383.305998 878.763994,383.066 880,383.066 Z" id="remove_red_eye---material"></path>
    </g>
  </g>
</svg>